<svg width="35" height="35" viewBox="0 0 35 35" fill="none" xmlns="http://www.w3.org/2000/svg">
<path d="M9.57692 16.5014V10.6345C9.59434 9.48124 9.83915 8.34279 10.2973 7.28431C10.7555 6.22586 11.418 5.26821 12.2469 4.46623C13.0758 3.66427 14.0549 3.03373 15.1279 2.61077C16.2009 2.18781 17.3468 1.98073 18.5 2.00141C19.6532 1.98073 20.7991 2.18781 21.8721 2.61077C22.9451 3.03373 23.9242 3.66427 24.7531 4.46623C25.582 5.26821 26.2446 6.22586 26.7028 7.28431C27.1607 8.34279 27.4057 9.48124 27.4231 10.6345V16.5014" stroke="black" stroke-width="2.5" stroke-linecap="round" stroke-linejoin="round"/>
<path d="M6.23077 13.1555H8.46154C8.75736 13.1555 9.04107 13.273 9.25023 13.4822C9.45941 13.6914 9.57692 13.9751 9.57692 14.2709V20.9632C9.57692 21.259 9.45941 21.5427 9.25023 21.7519C9.04107 21.9611 8.75736 22.0786 8.46154 22.0786H6.23077C5.63912 22.0786 5.07173 21.8436 4.65338 21.4252C4.23503 21.0069 4 20.4395 4 19.8478V15.3863C4 14.7946 4.23503 14.2272 4.65338 13.8089C5.07173 13.3906 5.63912 13.1555 6.23077 13.1555Z" stroke="black" stroke-width="2.5" stroke-linecap="round" stroke-linejoin="round"/>
<path d="M30.7692 22.0786H28.5385C28.2427 22.0786 27.9589 21.9611 27.7497 21.7519C27.5406 21.5427 27.4231 21.259 27.4231 20.9632V14.2709C27.4231 13.9751 27.5406 13.6914 27.7497 13.4822C27.9589 13.273 28.2427 13.1555 28.5385 13.1555H30.7692C31.3608 13.1555 31.9283 13.3906 32.3466 13.8089C32.7649 14.2272 33 14.7946 33 15.3863V19.8478C33 20.4395 32.7649 21.0069 32.3466 21.4252C31.9283 21.8436 31.3608 22.0786 30.7692 22.0786Z" stroke="black" stroke-width="2.5" stroke-linecap="round" stroke-linejoin="round"/>
<path d="M22.9615 28.2132C24.1448 28.2132 25.2795 27.7432 26.1163 26.9064C26.9531 26.0696 27.4231 24.9349 27.4231 23.7517V18.7324" stroke="black" stroke-width="2.5" stroke-linecap="round" stroke-linejoin="round"/>
<path d="M22.9615 28.2133C22.9615 28.9528 22.6677 29.6621 22.1448 30.185C21.6219 30.7079 20.9126 31.0017 20.1731 31.0017H16.8269C16.0874 31.0017 15.3781 30.7079 14.8552 30.185C14.3323 29.6621 14.0385 28.9528 14.0385 28.2133C14.0385 27.4738 14.3323 26.7644 14.8552 26.2415C15.3781 25.7186 16.0874 25.4248 16.8269 25.4248H20.1731C20.9126 25.4248 21.6219 25.7186 22.1448 26.2415C22.6677 26.7644 22.9615 27.4738 22.9615 28.2133Z" stroke="black" stroke-width="2.5" stroke-linecap="round" stroke-linejoin="round"/>
</svg>
